<?xml version="1.0" encoding="utf-8"?>
<svg viewBox="0 0 500 500" xmlns="http://www.w3.org/2000/svg">
  <path d="M 525.988 252.356 L 380.475 251.783 L 394.625 204.566 C 395.755 200.858 398.038 197.607 401.14 195.294 C 404.244 192.978 408.004 191.721 411.871 191.704 L 411.94 191.704 L 494.994 192.03 C 498.874 192.065 502.639 193.344 505.739 195.684 C 508.837 198.024 511.106 201.301 512.209 205.029 L 525.988 252.356 Z" fill="#3F3D56" style="" transform="matrix(1, 0, 0, 1, 1.1368683772161603e-13, 0)"/>
  <path d="M 654.149 499.99 L 252.549 499.99 C 247.63 499.984 242.915 498.021 239.437 494.533 C 235.959 491.045 234.001 486.315 233.997 481.382 L 233.997 269.036 C 234.001 264.102 235.959 259.373 239.437 255.883 C 242.915 252.396 247.63 250.433 252.549 250.428 L 654.149 250.428 C 659.069 250.433 663.784 252.396 667.263 255.883 C 670.739 259.373 672.697 264.102 672.702 269.036 L 672.702 481.382 C 672.697 486.315 670.739 491.045 667.263 494.533 C 663.784 498.021 659.069 499.984 654.149 499.99 Z M 252.549 252.616 C 248.208 252.622 244.048 254.353 240.979 257.432 C 237.91 260.51 236.184 264.682 236.179 269.036 L 236.179 481.382 C 236.184 485.734 237.91 489.908 240.979 492.986 C 244.048 496.064 248.208 497.795 252.549 497.8 L 654.149 497.8 C 658.489 497.795 662.651 496.064 665.72 492.986 C 668.789 489.908 670.514 485.734 670.52 481.382 L 670.52 269.036 C 670.514 264.682 668.789 260.51 665.72 257.432 C 662.651 254.353 658.489 252.622 654.149 252.616 L 252.549 252.616 Z" fill="#3F3D56" style="" transform="matrix(1, 0, 0, 1, 1.1368683772161603e-13, 0)"/>
  <path d="M 470.81 234.557 L 435.889 234.557 C 433.428 234.557 431.068 233.575 429.328 231.831 C 427.59 230.086 426.612 227.719 426.612 225.252 C 426.612 222.785 427.59 220.419 429.328 218.674 C 431.068 216.929 433.428 215.95 435.889 215.95 L 470.81 215.95 C 473.27 215.95 475.629 216.929 477.37 218.674 C 479.11 220.419 480.086 222.785 480.086 225.252 C 480.086 227.719 479.11 230.086 477.37 231.831 C 475.629 233.575 473.27 234.557 470.81 234.557 Z" fill="white" style="" transform="matrix(1, 0, 0, 1, 1.1368683772161603e-13, 0)"/>
  <path d="M 453.348 458.396 C 436.946 458.396 420.909 453.517 407.271 444.377 C 393.631 435.235 383 422.244 376.724 407.042 C 370.445 391.842 368.803 375.117 372.002 358.979 C 375.204 342.844 383.103 328.021 394.702 316.386 C 406.301 304.753 421.08 296.828 437.169 293.62 C 453.258 290.411 469.933 292.058 485.089 298.353 C 500.243 304.65 513.199 315.312 522.311 328.993 C 531.424 342.672 536.289 358.755 536.289 375.208 C 536.264 397.264 527.518 418.408 511.969 434.003 C 496.421 449.599 475.338 458.37 453.348 458.396 Z M 453.348 294.211 C 437.378 294.211 421.764 298.961 408.484 307.862 C 395.203 316.761 384.852 329.412 378.739 344.211 C 372.628 359.013 371.027 375.298 374.144 391.01 C 377.261 406.723 384.951 421.155 396.246 432.484 C 407.539 443.81 421.929 451.525 437.594 454.651 C 453.259 457.777 469.498 456.172 484.254 450.041 C 499.009 443.911 511.622 433.529 520.496 420.209 C 529.369 406.889 534.107 391.229 534.107 375.208 C 534.083 353.734 525.565 333.145 510.426 317.962 C 495.287 302.776 474.76 294.234 453.348 294.211 Z" fill="#3F3D56" style="" transform="matrix(1, 0, 0, 1, 1.1368683772161603e-13, 0)"/>
  <path d="M 453.348 429.938 C 442.557 429.938 432.007 426.728 423.035 420.714 C 414.061 414.7 407.066 406.152 402.937 396.152 C 398.808 386.152 397.727 375.148 399.833 364.532 C 401.938 353.915 407.136 344.163 414.765 336.51 C 422.397 328.855 432.119 323.643 442.703 321.532 C 453.288 319.42 464.26 320.503 474.231 324.645 C 484.201 328.788 492.722 335.803 498.718 344.803 C 504.715 353.803 507.914 364.384 507.914 375.208 C 507.899 389.718 502.144 403.629 491.914 413.89 C 481.685 424.15 467.817 429.92 453.348 429.938 Z M 453.348 322.669 C 442.988 322.669 432.861 325.75 424.246 331.524 C 415.632 337.297 408.918 345.502 404.954 355.102 C 400.99 364.703 399.952 375.266 401.972 385.459 C 403.995 395.65 408.984 405.011 416.309 412.36 C 423.636 419.708 432.969 424.712 443.13 426.739 C 453.291 428.766 463.824 427.725 473.395 423.749 C 482.967 419.772 491.148 413.038 496.904 404.398 C 502.659 395.757 505.731 385.599 505.731 375.208 C 505.716 361.279 500.192 347.925 490.373 338.075 C 480.551 328.224 467.237 322.684 453.348 322.669 Z" fill="#3F3D56" style="" transform="matrix(1, 0, 0, 1, 1.1368683772161603e-13, 0)"/>
  <path d="M 453.348 416.802 C 476.253 416.802 494.819 398.18 494.819 375.208 C 494.819 352.238 476.253 333.614 453.348 333.614 C 430.445 333.614 411.879 352.238 411.879 375.208 C 411.879 398.18 430.445 416.802 453.348 416.802 Z" fill="#CCCCCC" style="" transform="matrix(1, 0, 0, 1, 1.1368683772161603e-13, 0)"/>
  <path d="M 428.25 375.208 C 428.25 368.615 430.624 362.245 434.935 357.266 C 439.245 352.289 445.203 349.04 451.713 348.118 C 447.844 347.565 443.903 347.854 440.153 348.961 C 436.407 350.07 432.94 351.973 429.989 354.542 C 427.038 357.111 424.671 360.285 423.051 363.851 C 421.428 367.416 420.589 371.289 420.589 375.208 C 420.589 379.127 421.428 383.001 423.051 386.567 C 424.671 390.133 427.038 393.306 429.989 395.875 C 432.94 398.444 436.407 400.347 440.153 401.455 C 443.903 402.564 447.844 402.852 451.713 402.3 C 445.203 401.378 439.245 398.128 434.935 393.15 C 430.624 388.173 428.25 381.801 428.25 375.208 Z" fill="white" style="" transform="matrix(1, 0, 0, 1, 1.1368683772161603e-13, 0)"/>
  <path d="M 261.28 283.265 C 259.121 283.265 257.01 282.622 255.217 281.42 C 253.422 280.218 252.023 278.507 251.196 276.507 C 250.371 274.507 250.154 272.307 250.577 270.183 C 250.997 268.06 252.036 266.11 253.563 264.58 C 255.088 263.048 257.033 262.006 259.149 261.584 C 261.268 261.162 263.46 261.378 265.455 262.206 C 267.45 263.034 269.154 264.438 270.353 266.237 C 271.552 268.038 272.192 270.154 272.192 272.319 C 272.19 275.221 271.038 278.004 268.992 280.054 C 266.948 282.107 264.172 283.261 261.28 283.265 Z M 261.28 263.562 C 259.552 263.562 257.865 264.075 256.429 265.038 C 254.993 266 253.874 267.368 253.213 268.969 C 252.553 270.569 252.379 272.329 252.716 274.028 C 253.052 275.725 253.884 277.285 255.105 278.511 C 256.327 279.736 257.882 280.569 259.577 280.908 C 261.269 281.244 263.025 281.073 264.62 280.41 C 266.216 279.746 267.58 278.623 268.538 277.183 C 269.498 275.743 270.01 274.05 270.01 272.319 C 270.007 269.997 269.087 267.772 267.45 266.129 C 265.813 264.488 263.593 263.565 261.28 263.562 Z" fill="#3F3D56" style="" transform="matrix(1, 0, 0, 1, 1.1368683772161603e-13, 0)"/>
  <path d="M 261.28 277.791 C 264.292 277.791 266.735 275.342 266.735 272.319 C 266.735 269.296 264.292 266.845 261.28 266.845 C 258.266 266.845 255.823 269.296 255.823 272.319 C 255.823 275.342 258.266 277.791 261.28 277.791 Z" fill="#5EA8FF" style="" transform="matrix(1, 0, 0, 1, 1.1368683772161603e-13, 0)"/>
  <path d="M 289.653 277.791 C 292.667 277.791 295.11 275.342 295.11 272.319 C 295.11 269.296 292.667 266.845 289.653 266.845 C 286.64 266.845 284.197 269.296 284.197 272.319 C 284.197 275.342 286.64 277.791 289.653 277.791 Z" fill="#CCCCCC" style="" transform="matrix(1, 0, 0, 1, 1.1368683772161603e-13, 0)"/>
  <path d="M 318.026 277.791 C 321.041 277.791 323.483 275.342 323.483 272.319 C 323.483 269.296 321.041 266.845 318.026 266.845 C 315.014 266.845 312.572 269.296 312.572 272.319 C 312.572 275.342 315.014 277.791 318.026 277.791 Z" fill="#CCCCCC" style="" transform="matrix(1, 0, 0, 1, 1.1368683772161603e-13, 0)"/>
  <path d="M 289.653 283.265 C 287.494 283.265 285.384 282.622 283.591 281.42 C 281.795 280.218 280.396 278.507 279.571 276.507 C 278.745 274.507 278.529 272.307 278.95 270.183 C 279.371 268.06 280.411 266.11 281.936 264.58 C 283.463 263.048 285.408 262.006 287.524 261.584 C 289.64 261.162 291.835 261.378 293.83 262.206 C 295.824 263.034 297.527 264.438 298.727 266.237 C 299.927 268.038 300.567 270.154 300.567 272.319 C 300.563 275.221 299.413 278.004 297.366 280.054 C 295.32 282.107 292.547 283.261 289.653 283.265 Z M 289.653 263.562 C 287.926 263.562 286.24 264.075 284.802 265.038 C 283.366 266 282.248 267.368 281.587 268.969 C 280.927 270.569 280.753 272.329 281.09 274.028 C 281.427 275.725 282.259 277.285 283.48 278.511 C 284.702 279.736 286.255 280.569 287.95 280.908 C 289.644 281.244 291.399 281.073 292.995 280.41 C 294.59 279.746 295.953 278.623 296.912 277.183 C 297.872 275.743 298.384 274.05 298.384 272.319 C 298.381 269.997 297.46 267.772 295.824 266.129 C 294.188 264.488 291.967 263.565 289.653 263.562 Z" fill="#3F3D56" style="" transform="matrix(1, 0, 0, 1, 1.1368683772161603e-13, 0)"/>
  <path d="M 318.026 283.265 C 315.869 283.265 313.758 282.622 311.965 281.42 C 310.17 280.218 308.771 278.507 307.945 276.507 C 307.119 274.507 306.902 272.307 307.325 270.183 C 307.746 268.06 308.785 266.11 310.31 264.58 C 311.836 263.048 313.781 262.006 315.898 261.584 C 318.014 261.162 320.209 261.378 322.204 262.206 C 324.198 263.034 325.902 264.438 327.101 266.237 C 328.3 268.038 328.94 270.154 328.94 272.319 C 328.937 275.221 327.787 278.004 325.741 280.054 C 323.694 282.107 320.92 283.261 318.026 283.265 Z M 318.026 263.562 C 316.3 263.562 314.613 264.075 313.176 265.038 C 311.741 266 310.622 267.368 309.961 268.969 C 309.301 270.569 309.128 272.329 309.464 274.028 C 309.801 275.725 310.633 277.285 311.853 278.511 C 313.074 279.736 314.63 280.569 316.325 280.908 C 318.017 281.244 319.773 281.073 321.368 280.41 C 322.964 279.746 324.328 278.623 325.286 277.183 C 326.247 275.743 326.758 274.05 326.758 272.319 C 326.756 269.997 325.835 267.772 324.198 266.129 C 322.562 264.488 320.342 263.565 318.026 263.562 Z" fill="#3F3D56" style="" transform="matrix(1, 0, 0, 1, 1.1368683772161603e-13, 0)"/>
  <path d="M 376.958 345.517 L 235.088 345.517 L 235.088 347.706 L 376.958 347.706 L 376.958 345.517 Z" fill="#3F3D56" style="" transform="matrix(1, 0, 0, 1, 1.1368683772161603e-13, 0)"/>
  <path d="M 373.436 389.576 L 235.088 389.576 L 235.088 391.765 L 373.436 391.765 L 373.436 389.576 Z" fill="#3F3D56" style="" transform="matrix(1, 0, 0, 1, 1.1368683772161603e-13, 0)"/>
  <path d="M 152.794 129.451 C 161.645 125.373 167.462 113.716 167.13 102.217 C 166.8 90.72 160.766 79.966 152.446 74.483 C 148.391 71.876 143.751 70.321 138.949 69.957 C 134.144 69.593 129.325 70.431 124.924 72.396 C 115.995 76.209 104.006 77.248 98.636 86.723 C 94.512 94.007 95.999 110.25 98.918 118.349 C 101.444 125.347 107.615 129.291 113.633 131.497 C 120.295 133.917 127.397 134.874 134.46 134.305 C 141.522 133.734 148.381 131.648 154.569 128.19" fill="#2F2E41" style="" transform="matrix(1, 0, 0, 1, 1.1368683772161603e-13, 0)"/>
  <path d="M 206.755 486.535 L 219.478 482.381 L 209.569 431.187 L 190.79 437.314 L 206.755 486.535 Z" fill="#FFB8B8" style="" transform="matrix(1, 0, 0, 1, 1.1368683772161603e-13, 0)"/>
  <path d="M 227.384 475.772 L 202.847 483.778 L 207.873 499.273 L 247.858 486.225 C 247.198 484.191 246.145 482.305 244.758 480.68 C 243.373 479.052 241.68 477.716 239.78 476.745 C 237.878 475.774 235.804 475.188 233.677 475.022 C 231.551 474.855 229.412 475.108 227.384 475.772 Z" fill="white" style="" transform="matrix(1, 0, 0, 1, 1.1368683772161603e-13, 0)"/>
  <path d="M 92.855 486.812 L 106.234 486.812 L 112.6 435.051 L 92.853 435.052 L 92.855 486.812 Z" fill="#FFB8B8" style="" transform="matrix(1, 0, 0, 1, 1.1368683772161603e-13, 0)"/>
  <path d="M 115.792 482.978 L 89.989 482.978 L 89.989 499.273 L 132.038 499.273 C 132.038 497.131 131.619 495.013 130.802 493.036 C 129.985 491.058 128.789 489.263 127.28 487.749 C 125.772 486.237 123.979 485.037 122.01 484.217 C 120.039 483.399 117.926 482.978 115.792 482.978 Z" fill="white" style="" transform="matrix(1, 0, 0, 1, 1.1368683772161603e-13, 0)"/>
  <path d="M 93.528 465.641 C 93.609 465.641 93.691 465.639 93.771 465.634 L 108.596 464.926 C 109.844 464.865 111.024 464.328 111.893 463.428 C 112.761 462.526 113.254 461.327 113.274 460.074 L 115.283 312.974 C 115.288 312.611 115.414 312.256 115.641 311.972 C 115.869 311.686 116.183 311.485 116.537 311.4 C 116.89 311.315 117.262 311.351 117.595 311.501 C 117.926 311.651 118.199 311.909 118.367 312.231 L 196.897 461.575 C 197.384 462.511 198.159 463.263 199.107 463.721 C 200.056 464.179 201.126 464.317 202.159 464.116 L 216.915 461.297 C 217.609 461.164 218.268 460.883 218.843 460.472 C 219.42 460.06 219.902 459.528 220.254 458.914 C 220.607 458.297 220.822 457.613 220.886 456.907 C 220.952 456.2 220.861 455.489 220.627 454.821 L 163.409 292.219 L 159.007 244.119 C 158.909 242.998 158.428 241.944 157.646 241.137 C 156.863 240.329 155.827 239.818 154.712 239.688 C 138.038 237.632 114.742 223.931 105.501 218.135 C 104.933 217.776 104.299 217.54 103.635 217.44 C 102.972 217.339 102.295 217.378 101.648 217.553 C 100.994 217.731 100.381 218.04 99.85 218.462 C 99.319 218.886 98.879 219.412 98.559 220.012 C 76.296 261.509 67.781 309.038 74.248 355.712 L 88.672 461.382 C 88.826 462.563 89.406 463.646 90.3 464.431 C 91.192 465.214 92.342 465.646 93.528 465.641 Z" fill="#5EA8FF" style="" transform="matrix(1, 0, 0, 1, 1.1368683772161603e-13, 0)"/>
  <path d="M 133.436 140.748 C 118.634 140.748 106.632 128.714 106.632 113.865 C 106.632 99.018 118.634 86.981 133.436 86.981 C 148.241 86.981 160.241 99.018 160.241 113.865 C 160.241 128.714 148.241 140.748 133.436 140.748 Z" fill="#FFB8B8" style="" transform="matrix(1, 0, 0, 1, 1.1368683772161603e-13, 0)"/>
  <path d="M 160.143 255.668 L 168.216 197.826 C 170.18 189.037 168.584 179.824 163.781 172.215 C 158.978 164.605 151.357 159.218 142.596 157.24 C 133.834 155.262 124.649 156.854 117.056 161.667 C 109.465 166.477 104.089 174.116 102.11 182.901 C 99.811 193.594 95.142 206.611 96.847 220.643 C 108.801 253.916 130.499 264.175 160.143 255.668 Z" fill="white" style="" transform="matrix(1, 0, 0, 1, 1.1368683772161603e-13, 0)"/>
  <path d="M 124.676 165.913 L 144.321 165.913 C 145.623 165.912 146.871 165.393 147.792 164.468 C 148.711 163.546 149.23 162.294 149.232 160.988 L 149.232 154.421 C 149.23 153.115 148.711 151.862 147.792 150.939 C 146.871 150.015 145.623 149.497 144.321 149.496 L 124.676 149.496 C 123.375 149.497 122.127 150.015 121.206 150.939 C 120.285 151.862 119.768 153.115 119.766 154.421 L 119.766 160.988 C 119.768 162.294 120.285 163.546 121.206 164.468 C 122.127 165.393 123.375 165.912 124.676 165.913 Z" fill="white" style="" transform="matrix(1, 0, 0, 1, 1.1368683772161603e-13, 0)"/>
  <path d="M 25.123 275.242 C 24.59 273.608 24.42 271.876 24.628 270.171 C 24.834 268.464 25.409 266.823 26.316 265.364 C 27.224 263.906 28.439 262.664 29.876 261.727 C 31.313 260.789 32.936 260.18 34.634 259.942 L 95.78 172.142 L 113.91 190.119 L 48.104 270.771 C 48.315 273.657 47.465 276.52 45.711 278.82 C 43.959 281.119 41.426 282.693 38.594 283.244 C 35.761 283.796 32.824 283.286 30.342 281.81 C 27.86 280.335 26.002 277.999 25.123 275.242 Z" fill="#FFB8B8" style="" transform="matrix(1, 0, 0, 1, 1.1368683772161603e-13, 0)"/>
  <path d="M 76.652 199.001 L 98.733 213.785 C 99.36 214.206 100.072 214.487 100.818 214.605 C 101.564 214.725 102.327 214.683 103.054 214.482 C 103.783 214.279 104.459 213.921 105.036 213.433 C 105.614 212.946 106.081 212.34 106.404 211.653 L 117.716 187.651 C 119.841 184.416 120.601 180.466 119.829 176.669 C 119.056 172.872 116.813 169.538 113.593 167.395 C 110.373 165.253 106.439 164.479 102.651 165.24 C 98.862 166.004 95.53 168.241 93.384 171.463 L 75.672 191.077 C 75.166 191.639 74.785 192.303 74.558 193.026 C 74.329 193.748 74.261 194.512 74.354 195.264 C 74.446 196.015 74.7 196.738 75.097 197.384 C 75.492 198.028 76.023 198.581 76.652 199.001 Z" fill="white" style="" transform="matrix(1, 0, 0, 1, 1.1368683772161603e-13, 0)"/>
  <path d="M 241.131 157.269 C 240.997 157.86 240.911 158.46 240.871 159.064 L 193.991 186.19 L 182.596 179.609 L 170.448 195.562 L 189.491 209.174 C 191.03 210.274 192.884 210.844 194.772 210.798 C 196.661 210.752 198.484 210.093 199.966 208.918 L 248.307 170.668 C 250.489 171.479 252.865 171.602 255.119 171.025 C 257.373 170.448 259.398 169.196 260.927 167.436 C 262.453 165.676 263.41 163.491 263.67 161.173 C 263.929 158.854 263.478 156.511 262.376 154.456 C 261.276 152.4 259.577 150.73 257.507 149.666 C 255.436 148.602 253.091 148.195 250.785 148.502 C 248.479 148.807 246.32 149.809 244.596 151.376 C 242.872 152.943 241.663 154.997 241.131 157.269 Z" fill="#FFB8B8" style="" transform="matrix(1, 0, 0, 1, 1.1368683772161603e-13, 0)"/>
  <path d="M 180.365 205.901 L 192.144 182.036 C 192.479 181.358 192.665 180.614 192.687 179.857 C 192.71 179.099 192.569 178.347 192.277 177.648 C 191.983 176.95 191.543 176.323 190.986 175.811 C 190.43 175.299 189.768 174.913 189.051 174.68 L 163.865 166.516 C 160.392 164.815 156.387 164.566 152.732 165.822 C 149.074 167.078 146.065 169.737 144.359 173.216 C 142.654 176.695 142.395 180.71 143.637 184.381 C 144.881 188.052 147.524 191.078 150.987 192.798 L 172.655 207.892 C 173.277 208.324 173.983 208.618 174.726 208.75 C 175.471 208.884 176.234 208.856 176.966 208.667 C 177.696 208.477 178.38 208.133 178.966 207.655 C 179.553 207.178 180.03 206.579 180.365 205.901 Z" fill="white" style="" transform="matrix(1, 0, 0, 1, 1.1368683772161603e-13, 0)"/>
  <path d="M 115.449 80.007 C 114.484 80.148 113.5 79.966 112.648 79.49 C 111.796 79.014 111.124 78.268 110.739 77.369 C 110.381 76.46 110.237 75.48 110.314 74.506 C 110.393 73.53 110.693 72.587 111.191 71.746 C 112.206 70.071 113.624 68.678 115.312 67.693 C 117.257 66.388 119.507 65.613 121.841 65.44 C 123.005 65.364 124.173 65.539 125.263 65.954 C 126.354 66.37 127.343 67.014 128.165 67.847 C 128.965 68.7 129.493 69.773 129.682 70.929 C 129.871 72.085 129.71 73.271 129.225 74.335 C 128.245 76.231 126.188 77.294 124.184 78.017 C 120.209 79.444 115.975 80.002 111.766 79.651" fill="#2F2E41" style="" transform="matrix(1, 0, 0, 1, 1.1368683772161603e-13, 0)"/>
  <path d="M 106.879 126.106 C 111.563 126.326 110.757 116.356 112.223 111.887 C 113.69 107.419 115.709 102.09 120.323 101.232 C 124.101 100.531 127.517 103.303 130.809 105.292 C 136.677 108.84 144.272 110.147 150.432 107.144 C 156.593 104.139 160.34 96.112 157.343 89.933 C 156.43 88.234 155.181 86.743 153.669 85.549 C 152.159 84.355 150.419 83.484 148.559 82.992 C 144.831 82.03 140.945 81.843 137.142 82.442 C 128.657 83.485 120.504 86.383 113.258 90.932 C 108.257 94.078 103.499 98.361 102.011 104.09 C 100.522 109.817 99.915 125.396 105.734 126.382 L 106.879 126.106 Z" fill="#2F2E41" style="" transform="matrix(1, 0, 0, 1, 1.1368683772161603e-13, 0)"/>
  <path d="M 119.137 66.14 C 122.676 61.64 121.341 54.551 117.217 50.584 C 113.092 46.619 106.96 45.382 101.269 45.887 C 95.629 46.456 90.238 48.503 85.635 51.822 C 81.034 55.141 77.384 59.615 75.049 64.796 C 71.453 73.047 71.481 82.487 68.229 90.881 C 66.496 95.356 63.867 99.428 60.504 102.846 C 57.143 106.263 53.119 108.953 48.68 110.754 C 44.243 112.552 39.484 113.42 34.699 113.304 C 29.914 113.19 25.202 112.093 20.856 110.083 C 15.194 107.464 9.802 102.337 10.125 96.092 C 6.546 109.935 12.994 125.77 25.211 133.14 C 32.367 137.459 40.841 138.925 49.132 139.933 C 54.535 140.59 60.088 141.079 65.36 139.725 C 72.736 137.83 78.912 132.37 82.652 125.717 C 86.391 119.065 87.863 111.313 87.919 103.675 C 87.963 97.726 87.188 91.773 87.597 85.838 C 88.008 79.904 89.786 73.763 94.076 69.655 C 98.366 65.546 105.605 64.192 110.313 67.813 C 112.203 69.267 113.59 71.391 115.721 72.465 C 117.851 73.538 121.217 72.703 121.361 70.316 L 119.137 66.14 Z" fill="#2F2E41" style="" transform="matrix(1, 0, 0, 1, 1.1368683772161603e-13, 0)"/>
</svg>